<mxfile host="Electron" modified="2023-09-23T09:03:49.618Z" agent="Mozilla/5.0 (Windows NT 10.0; Win64; x64) AppleWebKit/537.36 (KHTML, like Gecko) draw.io/21.7.5 Chrome/114.0.5735.289 Electron/25.8.1 Safari/537.36" etag="cNez01pUUoh5a4fieqyR" version="21.7.5" type="device">
  <diagram name="第 1 页" id="1oMsVFiBbRYVfmmcZz7F">
    <mxGraphModel dx="1082" dy="1766" grid="1" gridSize="10" guides="1" tooltips="1" connect="1" arrows="1" fold="1" page="1" pageScale="1" pageWidth="827" pageHeight="1169" math="0" shadow="0">
      <root>
        <mxCell id="0" />
        <mxCell id="1" parent="0" />
        <mxCell id="tR-5AP1iEWvs70yg2sD0-4" value="" style="edgeStyle=orthogonalEdgeStyle;rounded=0;orthogonalLoop=1;jettySize=auto;html=1;" edge="1" parent="1" source="tR-5AP1iEWvs70yg2sD0-2" target="tR-5AP1iEWvs70yg2sD0-3">
          <mxGeometry relative="1" as="geometry" />
        </mxCell>
        <mxCell id="tR-5AP1iEWvs70yg2sD0-13" value="" style="edgeStyle=orthogonalEdgeStyle;rounded=0;orthogonalLoop=1;jettySize=auto;html=1;" edge="1" parent="1" source="tR-5AP1iEWvs70yg2sD0-2" target="tR-5AP1iEWvs70yg2sD0-12">
          <mxGeometry relative="1" as="geometry">
            <Array as="points">
              <mxPoint x="750" y="-1070" />
            </Array>
          </mxGeometry>
        </mxCell>
        <mxCell id="tR-5AP1iEWvs70yg2sD0-15" value="" style="edgeStyle=orthogonalEdgeStyle;rounded=0;orthogonalLoop=1;jettySize=auto;html=1;" edge="1" parent="1" source="tR-5AP1iEWvs70yg2sD0-2" target="tR-5AP1iEWvs70yg2sD0-14">
          <mxGeometry relative="1" as="geometry">
            <Array as="points">
              <mxPoint x="550" y="-1070" />
            </Array>
          </mxGeometry>
        </mxCell>
        <mxCell id="tR-5AP1iEWvs70yg2sD0-2" value="函数定义" style="ellipse;whiteSpace=wrap;html=1;" vertex="1" parent="1">
          <mxGeometry x="600" y="-1090" width="80" height="40" as="geometry" />
        </mxCell>
        <mxCell id="tR-5AP1iEWvs70yg2sD0-6" value="" style="edgeStyle=orthogonalEdgeStyle;rounded=0;orthogonalLoop=1;jettySize=auto;html=1;" edge="1" parent="1" source="tR-5AP1iEWvs70yg2sD0-3" target="tR-5AP1iEWvs70yg2sD0-5">
          <mxGeometry relative="1" as="geometry" />
        </mxCell>
        <mxCell id="tR-5AP1iEWvs70yg2sD0-3" value="外部变量序列" style="ellipse;whiteSpace=wrap;html=1;" vertex="1" parent="1">
          <mxGeometry x="600" y="-1008" width="80" height="40" as="geometry" />
        </mxCell>
        <mxCell id="tR-5AP1iEWvs70yg2sD0-9" value="" style="edgeStyle=orthogonalEdgeStyle;rounded=0;orthogonalLoop=1;jettySize=auto;html=1;" edge="1" parent="1" source="tR-5AP1iEWvs70yg2sD0-5" target="tR-5AP1iEWvs70yg2sD0-8">
          <mxGeometry relative="1" as="geometry" />
        </mxCell>
        <mxCell id="tR-5AP1iEWvs70yg2sD0-11" value="" style="edgeStyle=orthogonalEdgeStyle;rounded=0;orthogonalLoop=1;jettySize=auto;html=1;" edge="1" parent="1" source="tR-5AP1iEWvs70yg2sD0-5" target="tR-5AP1iEWvs70yg2sD0-10">
          <mxGeometry relative="1" as="geometry" />
        </mxCell>
        <mxCell id="tR-5AP1iEWvs70yg2sD0-5" value="形参序列" style="ellipse;whiteSpace=wrap;html=1;" vertex="1" parent="1">
          <mxGeometry x="600" y="-920" width="80" height="40" as="geometry" />
        </mxCell>
        <mxCell id="tR-5AP1iEWvs70yg2sD0-8" value="形参" style="ellipse;whiteSpace=wrap;html=1;" vertex="1" parent="1">
          <mxGeometry x="520" y="-830" width="80" height="40" as="geometry" />
        </mxCell>
        <mxCell id="tR-5AP1iEWvs70yg2sD0-10" value="..." style="ellipse;whiteSpace=wrap;html=1;" vertex="1" parent="1">
          <mxGeometry x="680" y="-830" width="80" height="40" as="geometry" />
        </mxCell>
        <mxCell id="tR-5AP1iEWvs70yg2sD0-12" value="函数体" style="ellipse;whiteSpace=wrap;html=1;" vertex="1" parent="1">
          <mxGeometry x="700" y="-1050" width="80" height="40" as="geometry" />
        </mxCell>
        <mxCell id="tR-5AP1iEWvs70yg2sD0-14" value="类型" style="ellipse;whiteSpace=wrap;html=1;" vertex="1" parent="1">
          <mxGeometry x="510" y="-1050" width="80" height="40" as="geometry" />
        </mxCell>
      </root>
    </mxGraphModel>
  </diagram>
</mxfile>
